<?xml version="1.0" encoding="UTF-8"?>
<svg width="12px" height="29px" viewBox="0 0 12 29" version="1.1" xmlns="http://www.w3.org/2000/svg" xmlns:xlink="http://www.w3.org/1999/xlink">
    <!-- Generator: Sketch 48.1 (47250) - http://www.bohemiancoding.com/sketch -->
    <title>Group 3</title>
    <desc>Created with Sketch.</desc>
    <defs></defs>
    <g id="Dashboard" stroke="none" stroke-width="1" fill="none" fill-rule="evenodd" transform="translate(-39.000000, -291.000000)">
        <g id="Group-3" transform="translate(39.000000, 291.000000)" fill="#F06623" fill-rule="nonzero">
            <path d="M11.2,5.76394521 C11.4223317,5.43123962 11.5494715,5.04550409 11.568,4.64745205 L11.568,3.73610959 C11.5599963,3.37825798 11.3087682,3.07054908 10.956,2.98652055 L7.828,2.30005479 C7.46889207,2.22221621 7.20981421,1.91297747 7.2,1.55046575 L7.2,0.879780822 C7.1978176,0.540771637 6.91971765,0.266481271 6.576,0.264328767 L5.416,0.264328767 C5.07541045,0.270742435 4.80210768,0.543802089 4.8,0.879780822 L4.8,1.55046575 C4.79199633,1.90831736 4.54076821,2.21602627 4.188,2.30005479 L1.06,2.98652055 C0.707231792,3.07054908 0.45600367,3.37825798 0.448,3.73610959 L0.448,4.64745205 C0.461740892,5.04400871 0.58331677,5.42962983 0.8,5.76394521 L2.972,8.67945205 C3.16579308,8.92971005 3.29237295,9.22418353 3.34,9.53556164 C3.29617031,9.84870513 3.18132281,10.1480728 3.004,10.4113973 L0.8,13.8318904 C0.597163115,14.1785426 0.481916466,14.5682612 0.464,14.9681096 L0.464,19.1776438 C0.468030801,19.5185188 0.742603446,19.796274 1.088,19.8088767 L5.392,19.8286027 L6.644,19.8286027 L10.948,19.8088767 C11.2933966,19.796274 11.5679692,19.5185188 11.572,19.1776438 L11.572,14.9681096 C11.5431292,14.5652442 11.4154692,14.1753255 11.2,13.8318904 L8.976,10.3995616 C8.79867719,10.1362371 8.68382969,9.83686951 8.64,9.52372603 C8.69544447,9.21464463 8.828877,8.92430026 9.028,8.67945205 L11.2,5.76394521 Z" id="Shape"></path>
            <path d="M6,26.1685479 C2.8,26.1685479 0.2,27.2298082 0.2,28.5356712 L11.8,28.5356712 C11.8,27.2219178 9.2,26.1685479 6,26.1685479 Z" id="Shape"></path>
            <polygon id="Rectangle-path" points="5.4 16.8302466 6.6 16.8302466 6.6 26.5630685 5.4 26.5630685"></polygon>
        </g>
    </g>
</svg>